<?xml version="1.0" standalone="no"?>
<!DOCTYPE svg PUBLIC "-//W3C//DTD SVG 20010904//EN"
 "http://www.w3.org/TR/2001/REC-SVG-20010904/DTD/svg10.dtd">
<svg version="1.0" xmlns="http://www.w3.org/2000/svg"
 width="580.000000pt" height="387.000000pt" viewBox="0 0 580.000000 387.000000"
 preserveAspectRatio="xMidYMid meet">

<g transform="translate(0.000000,387.000000) scale(0.100000,-0.100000)"
fill="#000000" stroke="none">
<path d="M1880 3196 l0 -145 33 -3 32 -3 3 -442 2 -443 -35 0 -35 0 0 -145 0
-145 445 0 445 0 -2 183 -3 182 -145 0 -145 0 -3 -37 -3 -38 -110 0 -109 0 0
445 0 445 35 0 35 0 0 145 0 145 -220 0 -220 0 0 -144z"/>
<path d="M3375 3300 c-281 -51 -504 -248 -585 -517 -19 -64 -21 -91 -18 -220
3 -139 5 -153 35 -226 77 -184 213 -332 376 -406 187 -85 437 -81 620 10 183
91 321 259 377 460 25 91 27 266 5 352 -70 269 -264 464 -530 532 -76 19 -215
27 -280 15z m315 -48 c60 -21 164 -72 194 -94 16 -13 3 -14 -100 -14 -93 0
-136 -5 -199 -23 -143 -40 -309 -129 -430 -229 -43 -36 -51 -40 -64 -27 -24
24 -26 116 -3 168 35 79 170 203 257 236 49 18 279 7 345 -17z m-528 -82
c-106 -103 -140 -212 -98 -313 l16 -37 -46 -50 c-26 -28 -50 -50 -55 -50 -16
0 -71 133 -76 186 -5 48 -3 58 23 95 43 63 147 152 222 192 37 20 69 37 71 37
2 0 -23 -27 -57 -60z m784 -85 c48 -25 67 -43 109 -105 61 -90 102 -189 117
-286 17 -105 14 -108 -73 -79 -139 48 -270 68 -589 90 -242 16 -299 29 -356
80 l-39 35 45 41 c91 85 252 179 371 218 102 33 146 40 255 38 90 -2 107 -6
160 -32z m-1057 -235 c8 -25 27 -71 43 -104 32 -63 32 -65 -7 -126 l-26 -41
-43 39 c-23 21 -49 41 -56 44 -12 4 -11 15 2 69 22 89 59 183 67 172 4 -4 13
-28 20 -53z m322 -129 c32 -15 86 -24 175 -31 503 -41 601 -55 728 -106 l68
-27 -7 -60 c-8 -74 -26 -130 -72 -224 -44 -90 -93 -148 -140 -164 -117 -38
-389 64 -609 229 -102 77 -288 253 -329 312 -31 45 -34 38 39 117 l29 32 36
-29 c20 -16 57 -38 82 -49z m-124 -172 c182 -188 338 -306 507 -384 117 -55
192 -76 291 -84 l80 -6 -60 -43 c-77 -55 -185 -108 -255 -123 -30 -7 -104 -13
-165 -13 -122 -1 -136 4 -232 75 -75 56 -134 146 -224 340 -43 95 -85 182 -94
195 -8 13 -15 31 -15 40 0 13 50 114 57 114 1 0 50 -50 110 -111z m-243 42
l38 -39 -28 -90 c-16 -50 -32 -88 -35 -86 -4 2 -12 34 -18 72 -31 201 -27 214
43 143z m90 -133 c13 -24 49 -100 80 -170 67 -154 110 -224 184 -301 50 -51
54 -57 27 -47 -75 28 -153 80 -219 144 -115 114 -165 207 -151 279 14 69 36
137 45 137 5 0 20 -19 34 -42z"/>
<path d="M1880 1570 l0 -150 38 0 39 0 106 -382 c58 -211 116 -421 128 -468
12 -47 27 -91 32 -97 11 -15 262 -18 272 -4 4 8 212 750 255 909 10 40 12 42
50 42 l40 0 0 150 0 150 -195 0 -195 0 0 -149 c0 -106 3 -150 12 -153 12 -4 8
-27 -42 -258 -11 -52 -28 -132 -37 -177 -15 -76 -33 -109 -33 -65 0 9 -25 125
-54 257 -41 188 -50 241 -40 243 11 3 14 35 14 153 l0 149 -195 0 -195 0 0
-150z"/>
<path d="M3004 1707 c-2 -7 -3 -74 -2 -148 l3 -134 28 -3 27 -3 0 -330 0 -329
-30 0 -31 0 3 -147 3 -148 425 0 425 0 3 172 c3 204 20 185 -168 181 -123 -3
-124 -3 -130 -28 -6 -24 -9 -25 -103 -28 l-97 -3 0 95 0 95 148 3 147 3 36
135 36 135 -183 3 -184 2 0 95 0 95 89 0 c85 0 90 -1 93 -22 3 -23 6 -23 151
-26 l147 -3 0 176 0 175 -415 0 c-332 0 -417 -3 -421 -13z"/>
</g>
</svg>
